<svg xmlns="http://www.w3.org/2000/svg" viewBox="0 0 16 16" id="Google-Scholar--Streamline-Font-Awesome" height="16" width="16">
  <desc>
    Google Scholar Streamline Icon: https://streamlinehq.com
  </desc>
<!--! Font Awesome Free 6.5.2 by @fontawesome - https://fontawesome.com License - https://fontawesome.com/license/free (Icons: CC BY 4.0, Fonts: SIL OFL 1.1, Code: MIT License) Copyright 2024 Fonticons, Inc.-->
  <path d="M12.215625 9.328125s0 0.003125 0.003125 0.003125c0.2875 0.60625 0.45 1.284375 0.45 2C12.665625 13.909375 10.578125 16 8 16s-4.665625 -2.090625 -4.665625 -4.665625c0 -0.715625 0.1625 -1.39375 0.45 -2 0.053125 -0.1125 0.1125 -0.225 0.175 -0.334375 0.1375 -0.2375 0.29375 -0.459375 0.46875 -0.665625 0.85625 -1.01875 2.140625 -1.665625 3.575 -1.665625 1.05 0 2.01875 0.346875 2.8 0.934375 0.284375 0.215625 0.54375 0.459375 0.775 0.734375 0.175 0.20625 0.33125 0.43125 0.46875 0.665625 0.0625 0.10625 0.11875 0.21875 0.171875 0.328125zm0.825 -0.5875c-0.940625 -1.825 -2.84375 -3.075 -5.040625 -3.075s-4.1 1.25 -5.040625 3.075L0 6.334375 8 0l8 6.334375 -2.959375 2.409375z" fill="#000000" stroke-width="0.0313"></path>
</svg>